# xmcd
#
# Track frame offsets: 
#        150
#        10693
#        23799
#        40072
#        51961
#        76661
#        84343
#        93308
#        114123
#        126778
#        150871
#        162547
#        181316
#
# Disc length: 2588 seconds
#
# Revision: 0
# Processed by: cddbd v1.5.2PL0 Copyright (c) Steve Scherf et al.
# Submitted via: ExactAudioCopy v0.95b4
#
DISCID=840a1a0d
DTITLE=L+S+F - Bolo nas jedenast
DYEAR=1981
DGENRE=
TTITLE0=Chcel by som byt
TTITLE1=Spominam na Pariz
TTITLE2=Jezibaby
TTITLE3=Na vystave
TTITLE4=V jedalnom vozni
TTITLE5=Ach, to by boli vojny malebne
TTITLE6=V nasej obci
TTITLE7=Za dedinou
TTITLE8=Jano bol chlap
TTITLE9=Vyletel vtak
TTITLE10=Ked som isiel
TTITLE11=Bolo nas jedenast
TTITLE12=Do batozka
EXTD=
EXTT0=
EXTT1=
EXTT2=
EXTT3=
EXTT4=
EXTT5=
EXTT6=
EXTT7=
EXTT8=
EXTT9=
EXTT10=
EXTT11=
EXTT12=
PLAYORDER=
